<?xml version="1.0" encoding="UTF-8"?><svg id="Layer_1" xmlns="http://www.w3.org/2000/svg" viewBox="0 0 2500 558"><defs><style>.cls-1{fill:#fff;}</style></defs><path class="cls-1" d="M440,0h-123c0,101-46.4,193.2-126.9,253.9l-48.6,36.4,188.8,257.2h155.1l-174-236.8C393.7,229.1,440,118.7,440,0ZM.2,0H126V547.5H.2V0ZM521.7,0h118.7V547.5h-118.7V0ZM1681.3,158.4c-45.3,0-88.3,13.8-117,53v-42.5h-112.6v378.6h114.3v-198.7c0-57.4,38.6-85.5,85-85.5,49.7,0,78.4,29.8,78.4,85v199.8h113.1v-241.2c0-88.3-70.1-148.5-161.2-148.5h0Zm-682.2,10.5v24.3c-32-22.1-70.6-34.8-112.6-34.8-110.4,0-199.8,89.4-199.8,199.8s89.5,199.8,199.9,199.8c41.9,0,80.6-12.7,112.6-34.8v24.3h113.1V168.9h-113.2Zm-103.2,286.4c-56.8,0-102.7-43.6-102.7-97.1s45.8-97.1,102.7-97.1,102.7,43.6,102.7,97.1-45.8,97.1-102.7,97.1Zm391.9-237.3v-49.1h-115.9v378.6h116.5v-176.6c0-59.6,64.6-91.6,109.3-91.6h1.1v-110.4c-45.9,0-88.4,19.9-111,49.1Zm906.8-49.1v24.3c-32-22.1-70.6-34.8-112.6-34.8-110.4,0-199.8,89.4-199.8,199.8s89.4,199.8,199.8,199.8c41.9,0,80.6-12.7,112.6-34.8v24.3h113.1V168.9h-113.1Zm-103.2,286.4c-56.8,0-102.7-43.6-102.7-97.1s45.8-97.1,102.7-97.1,102.7,43.6,102.7,97.1c.5,53.5-45.8,97.1-102.7,97.1Zm304.1-275.4c0-5.5-3.9-8.8-9.9-8.8h-10.5v28.7h5v-10.5h5.5l4.4,10.5h5.5l-5-11.6c3.4-1.6,5-4.4,5-8.3Zm-9.9,4.4h-5.5v-8.8h5.5c3.3,0,5,1.7,5,4.4s-1.1,4.4-5,4.4Z"/><path class="cls-1" d="M2383.9,159c-14.9,0-27,12.1-27,27,.6,14.9,12.1,27,27,27s27-12.1,27-27-12.1-27-27-27h0Zm0,49.1c-12.1,0-21.5-9.9-21.5-22.1s9.9-22.1,21.5-22.1,21.5,9.9,21.5,22.1c.1,12.1-9.9,22.1-21.5,22.1Zm44.7,205.3c-39.2,0-71.2,32-71.2,71.2s32,71.2,71.2,71.2,71.2-32,71.2-71.2-32-71.2-71.2-71.2Z"/></svg>